<svg id="Layer_1" data-name="Layer 1" xmlns="http://www.w3.org/2000/svg" viewBox="0 0 107 13.88"><defs><style>.cls-1{fill:#3273dc;}</style></defs><title>MakeSamai</title><path class="cls-1" d="M14.89,11.18l-.22.39a.34.34,0,0,1-.41.15,3,3,0,0,1-.87-.5.34.34,0,0,1-.08-.43l.22-.39a2.34,2.34,0,0,1-.43-.74h-.45a.33.33,0,0,1-.33-.28,3.05,3.05,0,0,1,0-1,.34.34,0,0,1,.33-.28h.45a2.34,2.34,0,0,1,.43-.74L13.31,7a.33.33,0,0,1,.08-.43,3,3,0,0,1,.87-.5.34.34,0,0,1,.41.15l.22.39a2.41,2.41,0,0,1,.86,0L16,6.17A.34.34,0,0,1,16.38,6a3,3,0,0,1,.87.5.34.34,0,0,1,.08.43l-.22.39a2.34,2.34,0,0,1,.43.74H18a.33.33,0,0,1,.33.28,3.05,3.05,0,0,1,0,1,.34.34,0,0,1-.33.28h-.45a2.34,2.34,0,0,1-.43.74l.22.39a.33.33,0,0,1-.08.43,3,3,0,0,1-.87.5.34.34,0,0,1-.41-.15l-.22-.39A2.41,2.41,0,0,1,14.89,11.18ZM14.6,9.58A1,1,0,0,0,16,8.15,1,1,0,0,0,14.6,9.58Zm-3.13,4.17.91.46a.65.65,0,0,1,.28.79,6.4,6.4,0,0,1-1.16,1.78.65.65,0,0,1-.82.14l-.79-.46a4.66,4.66,0,0,1-1.49.86v.91a.65.65,0,0,1-.53.64,6.1,6.1,0,0,1-2.06,0,.65.65,0,0,1-.54-.64v-.91a4.71,4.71,0,0,1-1.49-.86L3,16.93a.65.65,0,0,1-.82-.14A6.39,6.39,0,0,1,1,15a.65.65,0,0,1,.28-.79l.9-.46a4.7,4.7,0,0,1,0-1.72l-.9-.46A.65.65,0,0,1,1,10.79,6.37,6.37,0,0,1,2.19,9,.65.65,0,0,1,3,8.87l.79.46a4.66,4.66,0,0,1,1.49-.86V7.55a.65.65,0,0,1,.53-.64,6.18,6.18,0,0,1,2.06,0,.65.65,0,0,1,.54.64v.91a4.71,4.71,0,0,1,1.49.86l.79-.46a.65.65,0,0,1,.82.14,6.36,6.36,0,0,1,1.14,1.78.65.65,0,0,1-.27.79l-.91.46A4.71,4.71,0,0,1,11.48,13.76Zm-3.19.57a2,2,0,0,0-2.87-2.87A2,2,0,0,0,8.29,14.33Zm6.6,5-.22.39a.34.34,0,0,1-.41.15,3,3,0,0,1-.87-.5.34.34,0,0,1-.08-.43l.22-.39a2.34,2.34,0,0,1-.43-.74h-.45a.33.33,0,0,1-.33-.28,3.05,3.05,0,0,1,0-1,.34.34,0,0,1,.33-.28h.45a2.34,2.34,0,0,1,.43-.74l-.22-.39a.33.33,0,0,1,.08-.43,3,3,0,0,1,.87-.5.34.34,0,0,1,.41.15l.22.39a2.41,2.41,0,0,1,.86,0l.22-.39a.34.34,0,0,1,.41-.15,3,3,0,0,1,.87.5.34.34,0,0,1,.08.43l-.22.39a2.34,2.34,0,0,1,.43.74H18a.33.33,0,0,1,.33.28,3.05,3.05,0,0,1,0,1,.34.34,0,0,1-.33.28h-.45a2.34,2.34,0,0,1-.43.74l.22.39a.33.33,0,0,1-.08.43,3,3,0,0,1-.87.5.34.34,0,0,1-.41-.15l-.22-.39A2.41,2.41,0,0,1,14.89,19.28Zm-.28-1.6A1,1,0,0,0,16,16.25a1,1,0,0,0-1.43,1.43Z" transform="translate(-1 -5.96)"/><path class="cls-1" d="M28.29,15.08h0L31,6.8h3.63V18.63H31.9V11h0l-2.61,7.63H27.4l-2.56-7.51h0v7.51H22V6.8h3.6Z" transform="translate(-1 -5.96)"/><path class="cls-1" d="M41.44,18.62a3.27,3.27,0,0,1-.26-.62,4.77,4.77,0,0,1-.17-.73,3.36,3.36,0,0,1-.88,1.12,2.13,2.13,0,0,1-1.37.42,3,3,0,0,1-2.15-.71,2.51,2.51,0,0,1-.77-1.94,2.34,2.34,0,0,1,1-2,5.09,5.09,0,0,1,3-.71h1.13V12.8a1.25,1.25,0,0,0-.27-.86,1,1,0,0,0-.82-.3,1,1,0,0,0-.71.22.93.93,0,0,0-.23.69H36.24l0,0a2.29,2.29,0,0,1,1-2A4.5,4.5,0,0,1,40,9.68a4.09,4.09,0,0,1,2.64.81,2.81,2.81,0,0,1,1,2.32v3.31a6.72,6.72,0,0,0,.12,1.3,6.92,6.92,0,0,0,.35,1.2Zm-1.93-1.78a1.67,1.67,0,0,0,.89-.24,1.35,1.35,0,0,0,.54-.56V14.89h-1.1a1.24,1.24,0,0,0-1,.32,1.14,1.14,0,0,0-.29.8.78.78,0,0,0,.26.61A1,1,0,0,0,39.51,16.85Z" transform="translate(-1 -5.96)"/><path class="cls-1" d="M48.43,15.14h-.5v3.49H45.19V6h2.75v7.11h.39l1.85-3.23h3.14l-2.71,4,3.15,4.83H50.64Z" transform="translate(-1 -5.96)"/><path class="cls-1" d="M58,18.8a4.08,4.08,0,0,1-3.13-1.21,4.3,4.3,0,0,1-1.13-3.06v-.31a4.92,4.92,0,0,1,1.07-3.28,3.79,3.79,0,0,1,3.09-1.26,3.56,3.56,0,0,1,2.76,1.06,4.14,4.14,0,0,1,1,2.92V15.1h-5l0,0a1.71,1.71,0,0,0,.51,1.12,1.79,1.79,0,0,0,1.28.43,5.55,5.55,0,0,0,1.31-.13,8.35,8.35,0,0,0,1.2-.41l.66,1.67a5.05,5.05,0,0,1-1.53.7A7.07,7.07,0,0,1,58,18.8Zm-.11-7a1.13,1.13,0,0,0-1,.42,2.09,2.09,0,0,0-.36,1.13l0,0H59v-.21a1.83,1.83,0,0,0-.24-1A.92.92,0,0,0,57.91,11.79Z" transform="translate(-1 -5.96)"/><path class="cls-1" d="M69.07,15.5a1.18,1.18,0,0,0-.41-1,5.4,5.4,0,0,0-1.5-.72,11.4,11.4,0,0,1-3.27-1.52A2.74,2.74,0,0,1,62.82,10a2.85,2.85,0,0,1,1.24-2.4,6,6,0,0,1,6.42,0,3.07,3.07,0,0,1,1.19,2.67l0,0H69a1.49,1.49,0,0,0-.45-1.21,2.12,2.12,0,0,0-1.37-.38A1.76,1.76,0,0,0,66,9.07a1.14,1.14,0,0,0-.43.9,1,1,0,0,0,.44.83,8.65,8.65,0,0,0,1.65.78,8.82,8.82,0,0,1,3.11,1.49,3,3,0,0,1,1.06,2.4,2.85,2.85,0,0,1-1.22,2.44,5.39,5.39,0,0,1-3.23.88,5.91,5.91,0,0,1-3.4-.95,3.26,3.26,0,0,1-1.35-3l0,0H65.3a1.84,1.84,0,0,0,.51,1.47,2.34,2.34,0,0,0,1.56.43,2,2,0,0,0,1.28-.34A1.09,1.09,0,0,0,69.07,15.5Z" transform="translate(-1 -5.96)"/><path class="cls-1" d="M78.23,18.62A3.31,3.31,0,0,1,78,18a4.84,4.84,0,0,1-.17-.73,3.36,3.36,0,0,1-.88,1.12,2.13,2.13,0,0,1-1.37.42,3,3,0,0,1-2.15-.71,2.51,2.51,0,0,1-.77-1.94,2.34,2.34,0,0,1,1-2,5.09,5.09,0,0,1,3-.71h1.13V12.8a1.25,1.25,0,0,0-.27-.86,1,1,0,0,0-.82-.3,1,1,0,0,0-.71.22.93.93,0,0,0-.23.69H73l0,0a2.29,2.29,0,0,1,1-2,4.5,4.5,0,0,1,2.8-.81,4.09,4.09,0,0,1,2.64.81,2.81,2.81,0,0,1,1,2.32v3.31a6.76,6.76,0,0,0,.12,1.3,7,7,0,0,0,.35,1.2Zm-1.93-1.78a1.67,1.67,0,0,0,.89-.24,1.35,1.35,0,0,0,.54-.56V14.89h-1.1a1.24,1.24,0,0,0-1,.32,1.14,1.14,0,0,0-.29.8.78.78,0,0,0,.26.61A1,1,0,0,0,76.29,16.85Z" transform="translate(-1 -5.96)"/><path class="cls-1" d="M84.55,9.84l.1,1.16a2.9,2.9,0,0,1,1-1,3,3,0,0,1,1.44-.35,2.69,2.69,0,0,1,1.41.36,2.2,2.2,0,0,1,.89,1.09,3,3,0,0,1,1-1.07A2.88,2.88,0,0,1,92,9.68a2.44,2.44,0,0,1,2,.92,4.52,4.52,0,0,1,.74,2.84v5.19H92V13.44a2.29,2.29,0,0,0-.26-1.3.93.93,0,0,0-.79-.35,1.64,1.64,0,0,0-.7.14,1.48,1.48,0,0,0-.52.39c0,.09,0,.17,0,.24s0,.13,0,.2v5.87H87V13.44a2.31,2.31,0,0,0-.26-1.3.94.94,0,0,0-.8-.35,1.58,1.58,0,0,0-.68.14,1.48,1.48,0,0,0-.52.39v6.3H82V9.84Z" transform="translate(-1 -5.96)"/><path class="cls-1" d="M101.38,18.62a3.31,3.31,0,0,1-.26-.62,4.84,4.84,0,0,1-.17-.73,3.36,3.36,0,0,1-.88,1.12,2.13,2.13,0,0,1-1.37.42,3,3,0,0,1-2.15-.71,2.51,2.51,0,0,1-.77-1.94,2.34,2.34,0,0,1,1-2,5.09,5.09,0,0,1,3-.71h1.13V12.8a1.25,1.25,0,0,0-.27-.86,1,1,0,0,0-.82-.3,1,1,0,0,0-.71.22.93.93,0,0,0-.23.69H96.18l0,0a2.29,2.29,0,0,1,1-2,4.5,4.5,0,0,1,2.8-.81,4.09,4.09,0,0,1,2.64.81,2.81,2.81,0,0,1,1,2.32v3.31a6.76,6.76,0,0,0,.12,1.3,7,7,0,0,0,.35,1.2Zm-1.93-1.78a1.67,1.67,0,0,0,.89-.24,1.35,1.35,0,0,0,.54-.56V14.89h-1.1a1.24,1.24,0,0,0-1,.32,1.14,1.14,0,0,0-.29.8.78.78,0,0,0,.26.61A1,1,0,0,0,99.45,16.85Z" transform="translate(-1 -5.96)"/><path class="cls-1" d="M108,7.8h-2.75V6H108Zm0,10.83h-2.75V9.84H108Z" transform="translate(-1 -5.96)"/></svg>